<?xml version="1.0" encoding="utf-8"?>
<!-- Generator: Adobe Illustrator 25.0.0, SVG Export Plug-In . SVG Version: 6.00 Build 0)  -->
<svg version="1.1" id="Layer_1" xmlns="http://www.w3.org/2000/svg" xmlns:xlink="http://www.w3.org/1999/xlink" x="0px" y="0px"
	 viewBox="0 0 67.1 61.9" style="enable-background:new 0 0 67.1 61.9;" xml:space="preserve">
<style type="text/css">
	.st0{fill:#EF4444;}
	.st1{fill:#A21CAF;}
</style>
<g id="Artwork" transform="translate(0 0)">
	<g id="Group_13114" transform="translate(0 0)">
		<g id="Group_13109" transform="translate(7.336 7.385)">
			<path id="Path_74447" class="st0" d="M2.5,14.5c-3.3-3.3-3.3-8.7,0-12s8.7-3.3,12,0l-2,2c-2.2-2.2-5.7-2.2-7.9,0s-2.2,5.7,0,7.9
				L2.5,14.5z"/>
		</g>
		<g id="Group_13108">
			<path id="Path_74446" class="st1" d="M15.7,31.4C7,31.4,0,24.4,0,15.7S7,0,15.7,0s15.7,7,15.7,15.7c0,0,0,0,0,0
				C31.4,24.4,24.4,31.4,15.7,31.4z M15.7,2.9C8.6,2.9,2.9,8.6,2.9,15.7s5.7,12.8,12.8,12.8c7.1,0,12.8-5.7,12.8-12.8c0,0,0,0,0,0
				C28.5,8.6,22.8,2.9,15.7,2.9z"/>
		</g>
		<g id="Group_13111" transform="translate(45.257 9.544)">
			<path id="Path_74449" class="st0" d="M6,14.5c-2.3,0-4.4-0.9-6-2.5l2-2c2.2,2.2,5.7,2.2,7.9,0s2.2-5.7,0-7.9l0,0l2-2
				c3.3,3.3,3.3,8.7,0,12C10.4,13.6,8.3,14.5,6,14.5z"/>
		</g>
		<g id="Group_13110" transform="translate(35.669)">
			<path id="Path_74448" class="st1" d="M15.7,31.4C7,31.4,0,24.4,0,15.7C0,7,7,0,15.7,0c8.7,0,15.7,7,15.7,15.7
				C31.4,24.4,24.4,31.4,15.7,31.4z M15.7,2.9C8.6,2.9,2.9,8.6,2.9,15.7s5.7,12.8,12.8,12.8c7.1,0,12.8-5.7,12.8-12.8c0,0,0,0,0,0
				C28.5,8.6,22.8,2.9,15.7,2.9z"/>
		</g>
		<g id="Group_13113" transform="translate(25.886 41.661)">
			<path id="Path_74451" class="st0" d="M8.2,13C3.7,12.9,0,9.3,0,4.7C0,3,0.5,1.4,1.5,0l2.4,1.7C2.2,4.1,2.7,7.4,5.2,9.1
				c2.4,1.7,5.7,1.1,7.4-1.3L15,9.5C13.4,11.7,10.9,13,8.2,13z"/>
		</g>
		<g id="Group_13112" transform="translate(18.081 30.464)">
			<path id="Path_74450" class="st1" d="M15.7,31.4C7,31.4,0,24.4,0,15.7S7,0,15.7,0c8.7,0,15.7,7,15.7,15.7c0,0,0,0,0,0
				C31.4,24.4,24.4,31.4,15.7,31.4z M15.7,2.9C8.6,2.9,2.9,8.6,2.9,15.7s5.7,12.8,12.8,12.8s12.8-5.7,12.8-12.8c0,0,0,0,0,0
				C28.5,8.6,22.8,2.9,15.7,2.9z"/>
		</g>
	</g>
</g>
</svg>
