<?xml version="1.0" encoding="utf-8"?>
<!-- Generator: Adobe Illustrator 25.0.0, SVG Export Plug-In . SVG Version: 6.00 Build 0)  -->
<svg version="1.1" id="Layer_1" xmlns="http://www.w3.org/2000/svg" xmlns:xlink="http://www.w3.org/1999/xlink" x="0px" y="0px"
	 viewBox="0 0 67.1 55.4" style="enable-background:new 0 0 67.1 55.4;" xml:space="preserve">
<style type="text/css">
	.st0{fill:#EF4444;}
	.st1{fill:#A21CAF;}
</style>
<path id="Path_74441" class="st0" d="M31.7,55.4h-2.9V32.4l-4.9-6.1l-10.5-0.1l0-2.9l11.9,0.1l6.4,8L31.7,55.4z"/>
<path id="Path_74440" class="st1" d="M14.5,45.8c-0.2,0-0.4,0-0.5,0c-5.9,0-10.2-4.1-12.4-11.9c-1-3.7-1.6-7.4-1.6-11.2
	C0,13.5,2.9,8.1,5.3,5.3C7.9,2.1,11.8,0.1,15.9,0c6.8,0,12.3,4.5,12.3,10.1s-5.5,10.1-12.3,10.1h-2.5v-2.9h2.5
	c5.2,0,9.4-3.2,9.4-7.2s-4.2-7.2-9.4-7.2c-5.2,0-13,5.3-13,19.7c0,0.2,0.1,20.2,11.2,20.2h0.1c0,0,3.9,0.2,6-1.7
	c0.9-0.8,1.3-1.9,1.3-3c0.2-1.4-0.2-2.9-1.1-4c-1.2-1.3-3.5-1.9-7-1.9v-2.9c4.3,0,7.3,0.9,9.1,2.8c1.5,1.7,2.2,3.9,1.9,6.2
	c0,1.9-0.9,3.7-2.3,5C19.6,45.5,15.9,45.8,14.5,45.8z"/>
<path id="Path_74443" class="st0" d="M38.3,55.4h-2.9V31.4l6.4-8l11.9-0.1l0,2.9l-10.5,0.1l-4.9,6.1V55.4z"/>
<path id="Path_74442" class="st1" d="M52.6,45.8c-1.4,0-5.1-0.2-7.5-2.4c-1.4-1.3-2.3-3.1-2.3-5c-0.3-2.2,0.5-4.5,1.9-6.2
	c1.8-1.9,4.8-2.8,9.1-2.8v2.9c-3.5,0-5.7,0.6-7,1.9c-0.9,1.1-1.4,2.6-1.2,4c0,1.2,0.5,2.2,1.3,3c2.1,1.9,5.9,1.7,6,1.7H53
	c11.1,0,11.2-20,11.2-20.2c0-7.9-3.5-19.7-13-19.7c-5.2,0-9.4,3.2-9.4,7.2s4.2,7.2,9.4,7.2h2.5v2.9h-2.5c-6.8,0-12.3-4.5-12.3-10.1
	S44.4,0,51.2,0c6.4,0,15.9,6,15.9,22.6c-0.1,3.8-0.6,7.6-1.6,11.2c-2.3,7.8-6.6,11.9-12.4,11.9C53,45.8,52.8,45.8,52.6,45.8z"/>
</svg>
