<?xml version="1.0" encoding="utf-8"?>
<!-- Generator: Adobe Illustrator 25.0.0, SVG Export Plug-In . SVG Version: 6.00 Build 0)  -->
<svg version="1.1" id="Layer_1" xmlns="http://www.w3.org/2000/svg" xmlns:xlink="http://www.w3.org/1999/xlink" x="0px" y="0px"
	 viewBox="0 0 68.5 51.4" style="enable-background:new 0 0 68.5 51.4;" xml:space="preserve">
<style type="text/css">
	.st0{fill:#EF4444;}
	.st1{fill:#A21CAF;}
</style>
<g id="Artwork" transform="translate(0)">
	<g id="Group_13106" transform="translate(29.377 9.471)">
		<path id="Path_74444" class="st0" d="M2,27.1l-2-2C7.9,17.2,3.5,0.9,3.5,0.8L6.2,0c0.8,3.3,1.3,6.6,1.3,10
			C7.8,17.4,5.8,23.3,2,27.1z"/>
	</g>
	<g id="Group_13107" transform="translate(0 0)">
		<path id="Path_74445" class="st1" d="M8.4,51.4c-1.2,0-2.3-0.3-3.3-0.9c-3.5-2.1-3.6-7.3-3.8-12.8c0-2.4-0.2-4.8-0.5-7.2
			C-0.3,23.1-1.2,12.7,5,6c4.4-4.7,11.6-6.7,21.4-5.8c3.4,0.4,6.8,1,10.1,1.8c2.7,0.6,5.5,1.3,9,1.8c2.2,0.3,4.9,0.5,7.6,0.6
			c7.2,0.3,13.4,0.6,15,4.1c0.8,1.7,0.3,3.6-1.6,6l0,0c-2,2.6-3.1,3.1-12,6.9c-2.1,0.9-4.8,2.1-8,3.5C38.4,28.4,34.8,32.6,31,37
			c-3.6,4.2-7.3,8.4-14.8,12.1C13.1,50.6,10.5,51.4,8.4,51.4z M22.1,2.9C15.3,2.9,10.3,4.6,7.1,8c-5.3,5.7-4.5,15.3-3.5,22
			C4,32.5,4.2,35,4.2,37.6c0.1,4.5,0.3,9.2,2.4,10.4c1.5,0.9,4.3,0.4,8.4-1.5c7-3.3,10.3-7.2,13.8-11.3c3.9-4.5,7.8-9.1,16.6-13
			c3.2-1.4,5.8-2.5,8-3.5c8.6-3.7,9.3-4,10.9-6l0,0c1-1.3,1.5-2.4,1.2-3C64.7,7.9,57.9,7.6,53,7.4c-2.7-0.1-5.6-0.3-7.9-0.6
			c-3.6-0.5-6.5-1.2-9.2-1.9c-3.2-0.8-6.4-1.4-9.7-1.8C24.7,3,23.4,2.9,22.1,2.9z"/>
	</g>
</g>
</svg>
