<?xml version="1.0" encoding="utf-8"?>
<!-- Generator: Adobe Illustrator 25.0.0, SVG Export Plug-In . SVG Version: 6.00 Build 0)  -->
<svg version="1.1" id="Layer_1" xmlns="http://www.w3.org/2000/svg" xmlns:xlink="http://www.w3.org/1999/xlink" x="0px" y="0px"
	 viewBox="0 0 46.3 66.6" style="enable-background:new 0 0 46.3 66.6;" xml:space="preserve">
<style type="text/css">
	.st0{fill:#EF4444;}
	.st1{fill:#A21CAF;}
</style>
<g id="Artwork" transform="translate(0 0)">
	<g id="Group_13100" transform="translate(0 0)">
		<g id="Group_13096" transform="translate(2.463 46.964)">
			<path id="Path_74437" class="st0" d="M9.7,5.3C6.4,5.3,3.2,5,0,4.2l0.8-2.8L0.4,2.8l0.4-1.4c6.1,1.4,12.4,1.3,18.4-0.2
				c10.5-2.7,21.5-0.1,22,0L40.5,4c-0.1,0-10.8-2.5-20.6,0C16.6,4.9,13.1,5.3,9.7,5.3z"/>
		</g>
		<g id="Group_13097">
			<path id="Path_74438" class="st1" d="M23.2,66.6C10.4,66.6,0,56.2,0,43.4c0-14.2,21.1-40.9,22-42L23.2,0l1.1,1.4
				c0.9,1.1,22,27.7,22,42C46.3,56.2,36,66.6,23.2,66.6z M23.2,4.7C18.8,10.5,2.9,32.1,2.9,43.4C3,54.6,12.1,63.7,23.3,63.6
				c11.1-0.1,20.1-9,20.1-20.1C43.4,31.9,27.6,10.5,23.2,4.7z"/>
		</g>
		<g id="Group_13098" transform="translate(13.844 29.779)">
			<path id="Path_74439" class="st0" d="M9.2,11.3L0,2l2-2l7.2,7.2L16.5,0l2,2L9.2,11.3z"/>
		</g>
		<g id="Group_13099" transform="translate(21.647 17.396)">
			<rect id="Rectangle_17538" x="0" y="0" class="st0" width="2.9" height="21.6"/>
		</g>
	</g>
</g>
</svg>
